HIERARCHY
ROOT Hips
{
  OFFSET 4.28047 104.547 155.35
  CHANNELS 6 Xposition Yposition Zposition Zrotation Xrotation Yrotation
  JOINT RightUpLeg
  {
    OFFSET -8.9458 -8.66707 0.101652
    CHANNELS 3 Zrotation Xrotation Yrotation
    JOINT RightLeg
    {
      OFFSET 0 -44.4227 1.3727
      CHANNELS 3 Zrotation Xrotation Yrotation
      JOINT RightFoot
      {
        OFFSET 0.253549 -42.0924 -1.46059
        CHANNELS 3 Zrotation Xrotation Yrotation
        JOINT RightToes
        {
          OFFSET 0.04 -4.41509 8.4991
          CHANNELS 3 Zrotation Xrotation Yrotation
          End Site
          {
            OFFSET -0.08 -0.137448 9.77979
          }
        }
      }
    }
  }
  JOINT Spine
  {
    OFFSET 0 11.8905 0
    CHANNELS 3 Zrotation Xrotation Yrotation
    JOINT Spine1
    {
      OFFSET 0 25.6574 0.127663
      CHANNELS 3 Zrotation Xrotation Yrotation
      JOINT HEad
      {
        OFFSET 0 8.73416 0.011341
        CHANNELS 3 Zrotation Xrotation Yrotation
        End Site
        {
          OFFSET -0.29 12.7742 2.51395
        }
      }
      JOINT LeftShoulder1
      {
        OFFSET 8.99 -0.362252 -0.22
        CHANNELS 3 Zrotation Xrotation Yrotation
        JOINT LeftArm
        {
          OFFSET 10.2827 -0.00338 0.322123
          CHANNELS 3 Zrotation Xrotation Yrotation
          JOINT LeftForeArm
          {
            OFFSET 32.7669 0.099144 -1.42434
            CHANNELS 3 Zrotation Xrotation Yrotation
            JOINT LeftHand
            {
              OFFSET 27.5643 0.085362 1.02216
              CHANNELS 3 Zrotation Xrotation Yrotation
              End Site
              {
                OFFSET 16.7443 -0.6 1.50291
              }
            }
          }
        }
      }
      JOINT RightShoulder
      {
        OFFSET -8.99 -0.362252 -0.22
        CHANNELS 3 Zrotation Xrotation Yrotation
        JOINT RightArm
        {
          OFFSET -10.2827 -0.00338 0.322123
          CHANNELS 3 Zrotation Xrotation Yrotation
          JOINT RightForeArm
          {
            OFFSET -32.8971 0.099144 -1.42434
            CHANNELS 3 Zrotation Xrotation Yrotation
            JOINT RightHand
            {
              OFFSET -27.4921 0.085362 1.02216
              CHANNELS 3 Zrotation Xrotation Yrotation
              End Site
              {
                OFFSET -16.6312 -0.6 1.50291
              }
            }
          }
        }
      }
    }
  }
  JOINT LeftUpLeg
  {
    OFFSET 8.9458 -8.66707 0.101652
    CHANNELS 3 Zrotation Xrotation Yrotation
    JOINT LeftLeg
    {
      OFFSET 0 -44.4227 1.3727
      CHANNELS 3 Zrotation Xrotation Yrotation
      JOINT LeftFoot
      {
        OFFSET -0.253549 -42.0924 -1.46059
        CHANNELS 3 Zrotation Xrotation Yrotation
        JOINT LeftToes
        {
          OFFSET -0.04 -4.41509 8.4991
          CHANNELS 3 Zrotation Xrotation Yrotation
          End Site
          {
            OFFSET 0.08 -0.047448 9.77979
          }
        }
      }
    }
  }
}
MOTION
Frames:	7
Frame Time:	0.0166667
2.6281 103.858 163.419 3.13262 0.00607736 -176.572 9.54604 -22.0294 -1.647 -4.20489 19.6897 -12.7328 0.31742 -7.04113 -0.202176 0.0462048 0.000533964 0.662642 -0.171365 3.66736 1.6684 7.8302 5.81941 -0.289824 2.79286 -2.41425 8.55639 -4.41391e-032 -3.18055e-015 -7.95139e-016 -90.7545 -15.6135 -19.0288 -28.277 13.3962 -14.4676 0.368473 9.90896 -0.00117926 -9.94137 -0.0200598 4.596 89.2916 -24.8776 8.60713 22.2356 12.3364 3.78803 -0.369625 9.91382 0.00119886 0.6712 7.35688 -0.0599918 0.976301 28.7153 43.3625 -30.3422 3.18782 1.90796 9.21407e-012 -3.54489e-011 2.05559e-011 
3.01607 104.11 161.657 3.4864 0.000480664 -176.413 10.1404 -20.8307 -0.927805 -3.82113 19.6896 -13.3722 0.430366 -7.84059 -0.202214 -0.836565 -1.79184 -0.210302 0.0197903 3.67837 1.66064 7.81247 5.87485 -0.294524 3.18443 -2.27355 8.61685 3.97569e-016 4.77083e-015 7.95139e-016 -90.9042 -16.2419 -18.7557 -28.1479 13.2002 -13.4169 0.368473 9.90896 -0.00117926 -9.70795 -0.00378435 4.38159 89.5316 -24.8356 9.02473 22.0773 12.49 4.49251 -0.369625 9.91382 0.00119886 1.94622 5.89424 1.7066 1.31789 31.7759 46.0091 -30.171 6.4046 2.74557 9.21248e-012 -3.54457e-011 2.05464e-011 
3.38671 104.33 159.938 3.846 -0.0349579 -176.217 10.6844 -19.7092 -0.443231 -3.50346 19.7067 -13.8924 0.599885 -8.73205 -0.197452 -1.47998 -3.22799 -0.792462 0.241628 3.69998 1.64476 7.79921 5.95399 -0.30091 3.55385 -2.24419 8.61945 -9.93923e-016 -1.59028e-015 -0 -91.0511 -16.8216 -18.5995 -28.0063 12.988 -12.3064 0.368473 9.90896 -0.00117926 -9.52865 0.00870116 4.19073 89.788 -24.6797 9.4776 21.9681 12.643 5.22137 -0.369625 9.91382 0.00119886 3.24937 4.19318 3.33447 1.41379 34.9092 48.2044 -30.1302 9.26502 3.50808 9.21089e-012 -3.54513e-011 2.05623e-011 
3.7118 104.462 158.328 4.23278 -0.139582 -175.906 11.1683 -18.7788 -0.643237 -3.37892 19.7573 -14.0646 0.967286 -9.91603 -0.177578 -1.2388 -3.5576 -0.478938 0.5465 3.75475 1.61063 7.80826 6.10013 -0.312605 3.86087 -2.50412 8.43037 4.96962e-016 3.18055e-015 -0 -91.2203 -17.2392 -18.79 -27.8427 12.7252 -10.9637 0.368473 9.90896 -0.00117926 -9.48669 0.0114909 4.03587 90.0639 -24.2026 9.99301 22.0184 12.794 6.01381 -0.369625 9.91382 0.00119886 4.55495 1.84966 4.68347 1.71482 38.9187 48.7667 -30.1967 11.4691 4.10389 9.21089e-012 -3.54481e-011 2.05527e-011 
4.00667 104.534 156.798 4.60927 -0.314484 -175.563 11.6406 -18.0272 -1.0361 -3.33293 19.8766 -14.0985 1.33701 -11.159 -0.153919 -0.744563 -3.60954 0.0898155 0.900266 3.81736 1.55621 7.80405 6.27815 -0.325498 4.13378 -2.96535 8.21988 5.96354e-016 0 1.59028e-015 -91.3722 -17.6266 -19.1066 -27.6572 12.4691 -9.66083 0.368473 9.90896 -0.00117926 -9.54964 0.00708351 3.9739 90.3931 -23.5753 10.6229 22.1081 12.9506 6.84662 -0.369625 9.91382 0.00119886 5.71867 -0.844463 5.67829 2.00354 43.2047 47.9471 -30.4255 12.5219 4.40791 9.21407e-012 -3.54481e-011 2.05591e-011 
4.28047 104.547 155.35 4.97534 -0.586851 -175.211 12.143 -17.5031 -1.27105 -3.2757 20.096 -14.1861 1.52052 -12.2555 -0.136406 -0.47344 -4.14591 0.45241 1.30844 3.87282 1.47229 7.7835 6.45262 -0.337332 4.40354 -3.6273 8.10953 -1.39149e-015 -3.18055e-015 -0 -91.4887 -18.0829 -19.4487 -27.4333 12.2712 -8.5682 0.368473 9.90896 -0.00117926 -9.69497 -0.00175724 4.05427 90.7908 -22.9167 11.4096 22.155 13.1262 7.73597 -0.369625 9.91382 0.00119886 6.4769 -3.79106 6.25235 2.44146 47.2177 44.2631 -30.9154 11.3663 4.14886 9.21725e-012 -3.54473e-011 2.05543e-011 
4.52347 104.527 153.959 5.24034 -0.917677 -174.963 12.5699 -17.137 -1.41465 -3.25835 20.4395 -14.1517 1.63442 -13.3222 -0.119315 -0.316737 -4.61726 0.673691 1.70434 3.91268 1.3702 7.66676 6.66766 -0.34614 4.63409 -4.40409 8.11358 5.96354e-016 -3.18055e-015 -7.95139e-016 -91.5122 -18.6002 -19.685 -27.2489 12.1389 -7.81045 0.368473 9.90896 -0.00117926 -9.97571 -0.0216991 4.31173 91.316 -22.1716 12.4087 22.154 13.3024 8.6033 -0.369625 9.91382 0.00119886 6.93288 -6.84551 6.23658 3.03462 50.7235 40.195 -31.5907 9.38636 3.68151 9.21407e-012 -3.54401e-011 2.05527e-011 
